<?xml version="1.0" encoding="UTF-8" standalone="no"?>
<svg
   xmlns:dc="http://purl.org/dc/elements/1.1/"
   xmlns:cc="http://creativecommons.org/ns#"
   xmlns:rdf="http://www.w3.org/1999/02/22-rdf-syntax-ns#"
   xmlns:svg="http://www.w3.org/2000/svg"
   xmlns="http://www.w3.org/2000/svg"
   xmlns:sodipodi="http://sodipodi.sourceforge.net/DTD/sodipodi-0.dtd"
   xmlns:inkscape="http://www.inkscape.org/namespaces/inkscape"
   height="6.82666in"
   style="shape-rendering:geometricPrecision; text-rendering:geometricPrecision; image-rendering:optimizeQuality; fill-rule:evenodd; clip-rule:evenodd"
   viewBox="0 0 6.82666 6.82666"
   width="6.82666in"
   xml:space="preserve"
   version="1.1"
   id="svg54"
   sodipodi:docname="bridge_black.svg"
   inkscape:version="0.92.3 (2405546, 2018-03-11)"><metadata
     id="metadata58"><rdf:RDF><cc:Work
         rdf:about=""><dc:format>image/svg+xml</dc:format><dc:type
           rdf:resource="http://purl.org/dc/dcmitype/StillImage" /><dc:title></dc:title></cc:Work></rdf:RDF></metadata><sodipodi:namedview
     pagecolor="#ffffff"
     bordercolor="#666666"
     borderopacity="1"
     objecttolerance="10"
     gridtolerance="10"
     guidetolerance="10"
     inkscape:pageopacity="0"
     inkscape:pageshadow="2"
     inkscape:window-width="1865"
     inkscape:window-height="1025"
     id="namedview56"
     showgrid="false"
     inkscape:zoom="0.36010777"
     inkscape:cx="450.79915"
     inkscape:cy="559.10276"
     inkscape:window-x="55"
     inkscape:window-y="27"
     inkscape:window-maximized="1"
     inkscape:current-layer="svg54" /><defs
     id="defs4"><style
       type="text/css"
       id="style2">
   <![CDATA[
    .str0 {stroke:#373435;stroke-width:0.00694488;stroke-linecap:round;stroke-linejoin:round}
    .fil2 {fill:none}
    .fil1 {fill:#C3AE7E}
    .fil0 {fill:black;fill-rule:nonzero}
   ]]>
  </style></defs><path
     class="fil0"
     d="m 1.12972,1.63127 h 0.446122 c 0.029453,0 0.053335,0.023882 0.053335,0.053335 v 3.45746 c 0,0.029453 -0.023882,0.053335 -0.053335,0.053335 H 1.12972 c -0.029453,0 -0.053335,-0.023882 -0.053335,-0.053335 v -3.45746 c 0,-0.029453 0.023882,-0.053335 0.053335,-0.053335 z M 1.522507,1.737939 H 1.183054 v 3.35079 h 0.339453 z"
     id="_409842952"
     style="fill:#000000;fill-rule:nonzero"
     inkscape:connector-curvature="0" /><path
     class="fil0"
     d="m 5.25081,1.63127 h 0.446122 c 0.029453,0 0.053335,0.023882 0.053335,0.053335 v 3.45746 c 0,0.029453 -0.023882,0.053335 -0.053335,0.053335 H 5.25081 c -0.029453,0 -0.053335,-0.023882 -0.053335,-0.053335 v -3.45746 c 0,-0.029453 0.023882,-0.053335 0.053335,-0.053335 z M 5.643597,1.737939 H 5.304144 v 3.35079 h 0.339453 z"
     id="_409842880"
     style="fill:#000000;fill-rule:nonzero"
     inkscape:connector-curvature="0" /><path
     inkscape:connector-curvature="0"
     style="fill:#000000;fill-rule:nonzero"
     id="_409842784"
     d="m 1.52251,4.80737 c 0,0.029453 0.023882,0.053335 0.053335,0.053335 0.029453,0 0.053335,-0.023882 0.053335,-0.053335 0,-0.348957 0.197228,-0.666114 0.516098,-0.896783 0.323799,-0.234232 0.772071,-0.379114 1.26805,-0.379114 0.49598,0 0.944252,0.144882 1.26805,0.379114 0.318866,0.230669 0.516098,0.547827 0.516098,0.896783 0,0.029453 0.023882,0.053335 0.053335,0.053335 0.029453,0 0.053335,-0.023882 0.053335,-0.053335 0,-0.385157 -0.214114,-0.732622 -0.560272,-0.983035 -0.341236,-0.246846 -0.81172,-0.399531 -1.33055,-0.399531 -0.518827,0 -0.989307,0.152685 -1.33054,0.399531 C 1.7366214,4.074748 1.5225104,4.422213 1.52251,4.80737 Z"
     class="fil0" /><path
     inkscape:connector-curvature="0"
     style="fill:#000000;fill-rule:nonzero"
     id="_409842736"
     d="m 1.54297,3.615 c -0.020823,0.020709 -0.020917,0.054386 -2.087e-4,0.075209 0.020709,0.020823 0.054386,0.020917 0.075209,2.087e-4 0.228559,-0.227508 0.50626,-0.411535 0.817303,-0.537331 0.299559,-0.12115 0.630276,-0.188307 0.978055,-0.188307 0.345524,0 0.674154,0.066268 0.972087,0.185902 0.309508,0.12428 0.586177,0.306122 0.814508,0.531059 0.020941,0.020595 0.054614,0.020315 0.075209,-6.26e-4 0.020594,-0.020941 0.020315,-0.054614 -6.259e-4,-0.075209 -0.238244,-0.234705 -0.526807,-0.424394 -0.849508,-0.553972 -0.31063,-0.124732 -0.652669,-0.193823 -1.01167,-0.193823 -0.36135,0 -0.705472,0.06998 -1.01764,0.196228 -0.324469,0.131224 -0.614209,0.323244 -0.85272,0.560661 z"
     class="fil0" /><path
     class="fil0"
     d="m 5.25081,2.96478 c 0.029453,0 0.053335,-0.023882 0.053335,-0.053335 0,-0.029453 -0.023882,-0.053335 -0.053335,-0.053335 H 1.57585 c -0.029453,0 -0.053335,0.023882 -0.053335,0.053335 0,0.029453 0.023882,0.053335 0.053335,0.053335 z"
     id="_409842616"
     style="fill:#000000;fill-rule:nonzero"
     inkscape:connector-curvature="0" /><path
     class="fil0"
     d="m 1.96378,2.24086 c 0,-0.029453 -0.023882,-0.053335 -0.053335,-0.053335 -0.029453,0 -0.053335,0.023882 -0.053335,0.053335 v 0.669638 c 0,0.029453 0.023882,0.053335 0.053335,0.053335 0.029453,0 0.053335,-0.023882 0.053335,-0.053335 z"
     id="_409842544"
     style="fill:#000000;fill-rule:nonzero"
     inkscape:connector-curvature="0" /><path
     class="fil0"
     d="m 2.29838,2.24086 c 0,-0.029453 -0.023882,-0.053335 -0.053335,-0.053335 -0.029453,0 -0.053335,0.023882 -0.053335,0.053335 v 0.669638 c 0,0.029453 0.023882,0.053335 0.053335,0.053335 0.029453,0 0.053335,-0.023882 0.053335,-0.053335 z"
     id="_409842472"
     style="fill:#000000;fill-rule:nonzero"
     inkscape:connector-curvature="0" /><path
     class="fil0"
     d="m 2.63298,2.24086 c 0,-0.029453 -0.023882,-0.053335 -0.053335,-0.053335 -0.029453,0 -0.053335,0.023882 -0.053335,0.053335 v 0.669638 c 0,0.029453 0.023882,0.053335 0.053335,0.053335 0.029453,0 0.053335,-0.023882 0.053335,-0.053335 z"
     id="_409842400"
     style="fill:#000000;fill-rule:nonzero"
     inkscape:connector-curvature="0" /><path
     class="fil0"
     d="m 2.96758,2.24086 c 0,-0.029453 -0.023882,-0.053335 -0.053335,-0.053335 -0.029453,0 -0.053335,0.023882 -0.053335,0.053335 v 0.669638 c 0,0.029453 0.023882,0.053335 0.053335,0.053335 0.029453,0 0.053335,-0.023882 0.053335,-0.053335 z"
     id="_409842328"
     style="fill:#000000;fill-rule:nonzero"
     inkscape:connector-curvature="0" /><path
     class="fil0"
     d="m 3.30218,2.24086 c 0,-0.029453 -0.023882,-0.053335 -0.053335,-0.053335 -0.029453,0 -0.053335,0.023882 -0.053335,0.053335 v 0.669638 c 0,0.029453 0.023882,0.053335 0.053335,0.053335 0.029453,0 0.053335,-0.023882 0.053335,-0.053335 z"
     id="_409842256"
     style="fill:#000000;fill-rule:nonzero"
     inkscape:connector-curvature="0" /><path
     class="fil0"
     d="m 3.63678,2.24086 c 0,-0.029453 -0.023882,-0.053335 -0.053335,-0.053335 -0.029453,0 -0.053335,0.023882 -0.053335,0.053335 v 0.669638 c 0,0.029453 0.023882,0.053335 0.053335,0.053335 0.029453,0 0.053335,-0.023882 0.053335,-0.053335 z"
     id="_409842184"
     style="fill:#000000;fill-rule:nonzero"
     inkscape:connector-curvature="0" /><path
     class="fil0"
     d="m 3.97138,2.24086 c 0,-0.029453 -0.023882,-0.053335 -0.053335,-0.053335 -0.029453,0 -0.053335,0.023882 -0.053335,0.053335 v 0.669638 c 0,0.029453 0.023882,0.053335 0.053335,0.053335 0.029453,0 0.053335,-0.023882 0.053335,-0.053335 z"
     id="_409842112"
     style="fill:#000000;fill-rule:nonzero"
     inkscape:connector-curvature="0" /><path
     class="fil0"
     d="m 4.30598,2.24086 c 0,-0.029453 -0.023882,-0.053335 -0.053335,-0.053335 -0.029453,0 -0.053335,0.023882 -0.053335,0.053335 v 0.669638 c 0,0.029453 0.023882,0.053335 0.053335,0.053335 0.029453,0 0.053335,-0.023882 0.053335,-0.053335 z"
     id="_409842040"
     style="fill:#000000;fill-rule:nonzero"
     inkscape:connector-curvature="0" /><path
     class="fil0"
     d="m 4.64059,2.24086 c 0,-0.029453 -0.023882,-0.053335 -0.053335,-0.053335 -0.029453,0 -0.053335,0.023882 -0.053335,0.053335 v 0.669638 c 0,0.029453 0.023882,0.053335 0.053335,0.053335 0.029453,0 0.053335,-0.023882 0.053335,-0.053335 z"
     id="_409841944"
     style="fill:#000000;fill-rule:nonzero"
     inkscape:connector-curvature="0" /><path
     class="fil0"
     d="m 4.97519,2.24086 c 0,-0.029453 -0.023882,-0.053335 -0.053335,-0.053335 -0.029453,0 -0.053335,0.023882 -0.053335,0.053335 v 0.669638 c 0,0.029453 0.023882,0.053335 0.053335,0.053335 0.029453,0 0.053335,-0.023882 0.053335,-0.053335 z"
     id="_409841896"
     style="fill:#000000;fill-rule:nonzero"
     inkscape:connector-curvature="0" /><path
     inkscape:connector-curvature="0"
     style="fill:#000000;fill-rule:nonzero"
     id="_409841776"
     d="m 1.57585,2.18424 c -0.029453,0 -0.053335,0.023882 -0.053335,0.053335 0,0.029453 0.023882,0.053335 0.053335,0.053335 h 3.67496 c 0.029453,0 0.053335,-0.023882 0.053335,-0.053335 0,-0.029453 -0.023882,-0.053335 -0.053335,-0.053335 z"
     class="fil0" /><path
     inkscape:connector-curvature="0"
     style="fill:#000000;fill-rule:nonzero"
     id="_409841632"
     d="m 0.906661,5.08873 h 0.892248 c 0.029453,0 0.053335,0.023882 0.053335,0.053335 v 0.334591 c 0,0.029453 -0.023882,0.053335 -0.053335,0.053335 H 0.906661 c -0.0294528,0 -0.0533346,-0.023882 -0.0533346,-0.053335 V 5.142065 c 0,-0.029453 0.0238819,-0.053335 0.0533346,-0.053335 z M 1.745574,5.195399 H 0.959995 V 5.42332 h 0.785579 z"
     class="fil0" /><path
     inkscape:connector-curvature="0"
     style="fill:#000000;fill-rule:nonzero"
     id="_409841584"
     d="m 0.906661,1.29667 h 0.892248 c 0.029453,0 0.053335,0.023882 0.053335,0.053335 v 0.334594 c 0,0.029453 -0.023882,0.053335 -0.053335,0.053335 H 0.906661 c -0.0294528,0 -0.0533346,-0.023882 -0.0533346,-0.053335 V 1.350005 c 0,-0.029453 0.0238819,-0.053335 0.0533346,-0.053335 z M 1.745574,1.403339 H 0.959995 v 0.227925 h 0.785579 z"
     class="fil0" /><path
     inkscape:connector-curvature="0"
     style="fill:#000000;fill-rule:nonzero"
     id="_409841416"
     d="m 5.02775,5.08873 h 0.892248 c 0.029453,0 0.053335,0.023882 0.053335,0.053335 v 0.334591 c 0,0.029453 -0.023882,0.053335 -0.053335,0.053335 H 5.02775 c -0.029453,0 -0.053335,-0.023882 -0.053335,-0.053335 V 5.142065 c 0,-0.029453 0.023882,-0.053335 0.053335,-0.053335 z M 5.866663,5.195399 H 5.081084 V 5.42332 h 0.785579 z"
     class="fil0" /><path
     inkscape:connector-curvature="0"
     style="fill:#000000;fill-rule:nonzero"
     id="_409841440"
     d="m 5.02775,1.29667 h 0.892248 c 0.029453,0 0.053335,0.023882 0.053335,0.053335 v 0.334594 c 0,0.029453 -0.023882,0.053335 -0.053335,0.053335 H 5.02775 c -0.029453,0 -0.053335,-0.023882 -0.053335,-0.053335 V 1.350005 c 0,-0.029453 0.023882,-0.053335 0.053335,-0.053335 z M 5.866663,1.403339 H 5.081084 v 0.227925 h 0.785579 z"
     class="fil0" /><path
     inkscape:connector-curvature="0"
     style="fill:#000000;stroke:none;stroke-width:0.00779944;stroke-linecap:round;stroke-linejoin:round"
     id="path37"
     d="m 3.4056596,2.9124392 c -0.3662202,0 -0.7144717,0.080436 -1.0299141,0.2255418 C 2.0535458,3.2861937 1.7653239,3.5019046 1.5269133,3.7682823 V 4.5686619 C 1.6278666,4.3298082 1.7927394,4.1162533 2.0045665,3.9419588 2.3638958,3.6463027 2.859323,3.4634262 3.4056554,3.4634262 c 0.5463367,0 1.041767,0.1828765 1.4010995,0.4785326 0.2118271,0.1742993 0.3766999,0.3878494 0.4776532,0.6267079 V 3.7682872 C 5.0444684,3.5002015 4.7540457,3.283421 4.4292872,3.1350994 4.115557,2.9918096 3.7695022,2.912438 3.4056574,2.912438 Z"
     class="fil1 str0" /><polygon
     style="fill:#000000;stroke:none;stroke-width:0.00694488;stroke-linecap:round;stroke-linejoin:round"
     id="polygon39"
     points="1.52251,4.80737 1.52251,2.91144 1.52251,2.23757 1.52251,1.73794 1.18306,1.73794 1.18306,5.08873 1.52251,5.08873 "
     class="fil1 str0"
     transform="matrix(1.2171993,0,0,1.021365,-0.30149425,-0.07292577)" /><polygon
     style="fill:#000000;stroke:none;stroke-width:0.00694488;stroke-linecap:round;stroke-linejoin:round"
     id="polygon41"
     points="5.30415,2.91144 5.30415,4.80737 5.30415,5.08873 5.6436,5.08873 5.6436,1.73794 5.30415,1.73794 5.30415,2.23757 "
     class="fil1 str0"
     transform="matrix(1.1718102,0,0,1.0061043,-0.95325165,-0.02083593)" /><polygon
     style="fill:#000000;stroke:none;stroke-width:0.00694488;stroke-linecap:round;stroke-linejoin:round"
     id="polygon43"
     points="5.86666,5.1954 5.69693,5.1954 5.25081,5.1954 5.08108,5.1954 5.08108,5.42332 5.86666,5.42332 "
     class="fil1 str0"
     transform="matrix(1.1334793,0,0,1.1334793,-0.73064824,-0.70868956)" /><polygon
     style="fill:#000000;stroke:none;stroke-width:0.00694488;stroke-linecap:round;stroke-linejoin:round"
     id="polygon45"
     points="5.08108,1.63127 5.25081,1.63127 5.69693,1.63127 5.86666,1.63127 5.86666,1.40334 5.08108,1.40334 "
     class="fil1 str0"
     transform="matrix(1.052074,0,0,1.052074,-0.28504625,-0.07901212)" /><polygon
     style="fill:#000000;stroke:none;stroke-width:0.00694488;stroke-linecap:round;stroke-linejoin:round"
     id="polygon47"
     points="1.74557,5.1954 1.57585,5.1954 1.12972,5.1954 0.959996,5.1954 0.959996,5.42332 1.74557,5.42332 "
     class="fil1 str0"
     transform="matrix(1.1104665,0,0,1.1104665,-0.14943715,-0.58650619)" /><polygon
     style="fill:#000000;stroke:none;stroke-width:0.00694488;stroke-linecap:round;stroke-linejoin:round"
     id="polygon49"
     points="0.959996,1.63127 1.12972,1.63127 1.57585,1.63127 1.74557,1.63127 1.74557,1.40334 0.959996,1.40334 "
     class="fil1 str0"
     transform="matrix(1.130186,0,0,1.130186,-0.17611336,-0.19753182)" /><rect
     style="fill:none"
     y="0"
     x="0"
     class="fil2"
     height="6.8266602"
     width="6.8266602"
     id="rect52" /></svg>